<svg version="1.1" id="Layer_1" xmlns="http://www.w3.org/2000/svg" xmlns:xlink="http://www.w3.org/1999/xlink" viewBox="0 0 512 512" xml:space="preserve" fill="#000000"><g id="SVGRepo_bgCarrier" stroke-width="0"></g><g id="SVGRepo_tracerCarrier" stroke-linecap="round" stroke-linejoin="round"></g><g id="SVGRepo_iconCarrier"> <path style="fill:#ff7e05;" d="M444.189,228.957h-48.428c-9.024,0-16.34-7.316-16.34-16.34v-51.471c0-9.024,7.316-16.34,16.34-16.34 h99.898c9.024,0,16.34,7.316,16.34,16.34C512,198.536,481.58,228.957,444.189,228.957z"></path> <g> <path style="fill:#FFC843;" d="M395.762,264.74H264.033c-9.024,0-16.34-7.316-16.34-16.34V139.753 c0-45.327,36.877-82.204,82.204-82.204c45.328,0,82.205,36.877,82.205,82.204V248.4C412.102,257.425,404.786,264.74,395.762,264.74 z"></path> <path style="fill:#FFC843;" d="M206.051,454.451C92.435,454.451,0,362.017,0,248.4c0-9.024,7.316-16.34,16.34-16.34h379.421 c9.024,0,16.34,7.316,16.34,16.34C412.102,362.017,319.668,454.451,206.051,454.451z"></path> </g> <path style="fill:#FFC843;" d="M206.051,386.574c-46.016,0-88.888-22.867-114.681-61.169c-7.297-10.832,0.483-25.468,13.553-25.468 h202.256c13.056,0,20.857,14.622,13.553,25.468C294.939,363.707,252.067,386.574,206.051,386.574z"></path> <path style="fill:#FFC843;" d="M395.762,232.059H206.051V454.45c113.617,0,206.051-92.434,206.051-206.051 C412.102,239.375,404.786,232.059,395.762,232.059z"></path> <path style="fill:#F3B73F;" d="M307.178,299.937H206.051v86.637c46.016,0,88.889-22.867,114.68-61.169 C328.036,314.56,320.235,299.937,307.178,299.937z"></path> <circle style="fill:#4A5052;" cx="345.153" cy="134.83" r="21.616"></circle> </g></svg>